<?xml version="1.0" encoding="utf-8"?>
<!-- Generator: Adobe Illustrator 24.2.1, SVG Export Plug-In . SVG Version: 6.00 Build 0)  -->
<svg version="1.1" id="Layer_1" xmlns="http://www.w3.org/2000/svg" xmlns:xlink="http://www.w3.org/1999/xlink" x="0px" y="0px"
	 viewBox="0 0 750 500" style="enable-background:new 0 0 750 500;" xml:space="preserve">
<style type="text/css">
	.st0{fill:url(#SVGID_1_);}
	.st1{fill:#FFFFFF;}
</style>
<linearGradient id="SVGID_1_" gradientUnits="userSpaceOnUse" x1="13.7816" y1="558.3461" x2="803.4628" y2="238.4102" gradientTransform="matrix(1 0 0 -1 0 662)">
	<stop  offset="0" style="stop-color:#9999FF"/>
	<stop  offset="0.2824" style="stop-color:#7373D9"/>
	<stop  offset="0.5862" style="stop-color:#5050B6"/>
	<stop  offset="0.8364" style="stop-color:#3B3BA1"/>
	<stop  offset="1" style="stop-color:#333399"/>
</linearGradient>
<rect class="st0" width="750" height="500"/>
<g>
	<g>
		<path class="st1" d="M77.8,296.9c-8.9,0-15.4,6.8-15.4,16.1c0,9.3,6.4,16.1,15.2,16.1c9.1,0,15.4-6.6,15.4-16.1
			S86.8,296.9,77.8,296.9z"/>
		<path class="st1" d="M203.5,239.8c0,17.1,0.2,32.3,1.3,48.1c-6-11.8-12.9-23.9-21-36.7l-47.3-74.6h-24.3v150.2h22.7v-64.6
			c0-19.7-0.3-34.8-1-49.5c5.8,11.4,13.2,24.1,22.6,39.2l46.8,74.9h22.9V176.4h-22.7V239.8z"/>
		<polygon class="st1" points="277.7,258.6 334.2,258.6 334.2,238.1 277.7,238.1 277.7,197.3 337.4,197.3 337.4,176.4 254,176.4 
			254,326.8 340.6,326.8 340.6,305.9 277.7,305.9 		"/>
		<polygon class="st1" points="346.8,176.4 346.8,197.4 391,197.4 391,326.8 415,326.8 415,197.4 459.4,197.4 459.4,176.4 		"/>
	</g>
	<g>
		<path class="st1" d="M544.7,239.4c-3.1,1.6-9.4,3.1-17.4,3.1c-18.6,0-32.6-11.8-32.6-33.4c0-20.7,14-34.7,34.5-34.7
			c8.2,0,13.4,1.8,15.7,2.9l-2.1,7c-3.2-1.6-7.8-2.7-13.3-2.7c-15.5,0-25.8,9.9-25.8,27.2c0,16.2,9.3,26.6,25.4,26.6
			c5.2,0,10.5-1.1,13.9-2.7L544.7,239.4z"/>
		<path class="st1" d="M596.9,217.4c0,17.5-12.2,25.2-23.6,25.2c-12.8,0-22.7-9.4-22.7-24.4c0-15.9,10.4-25.2,23.5-25.2
			C587.7,193.1,596.9,202.9,596.9,217.4z M559.3,217.9c0,10.4,6,18.2,14.4,18.2c8.2,0,14.4-7.7,14.4-18.4c0-8-4-18.2-14.2-18.2
			C563.7,199.6,559.3,208.9,559.3,217.9z"/>
		<path class="st1" d="M607.8,206.9c0-4.9-0.1-8.9-0.4-12.8h7.6l0.5,7.8h0.2c2.4-4.5,7.8-8.9,15.7-8.9c6.6,0,16.8,3.9,16.8,20.2
			v28.3h-8.6v-27.3c0-7.6-2.8-14-11-14c-5.7,0-10.1,4-11.6,8.8c-0.4,1.1-0.6,2.5-0.6,4v28.5h-8.6L607.8,206.9L607.8,206.9z"/>
		<path class="st1" d="M663.1,241.6v-40.8h-6.7v-6.6h6.7v-2.3c0-6.7,1.5-12.7,5.5-16.6c3.2-3.1,7.5-4.4,11.6-4.4
			c3,0,5.7,0.7,7.4,1.4l-1.2,6.7c-1.3-0.6-3-1.1-5.5-1.1c-7.4,0-9.2,6.5-9.2,13.7v2.5h11.5v6.6h-11.5v40.9L663.1,241.6L663.1,241.6z
			"/>
	</g>
	<g>
		<path class="st1" d="M493.2,324.5v-5.3l6.8-6.6c16.3-15.5,23.6-23.7,23.7-33.3c0-6.5-3.1-12.4-12.6-12.4c-5.8,0-10.6,2.9-13.5,5.4
			l-2.7-6.1c4.4-3.7,10.7-6.5,18-6.5c13.7,0,19.5,9.4,19.5,18.5c0,11.8-8.5,21.3-22,34.2l-5.2,4.8v0.2h28.6v7.2h-40.6V324.5z"/>
		<path class="st1" d="M585.8,292c0,21.7-8,33.6-22.1,33.6c-12.4,0-20.9-11.7-21.1-32.7c0-21.4,9.2-33.1,22.1-33.1
			C578.1,259.8,585.8,271.8,585.8,292z M551.2,293c0,16.6,5.1,26,12.9,26c8.8,0,13-10.3,13-26.6c0-15.7-4-26-12.9-26
			C556.7,266.4,551.2,275.6,551.2,293z"/>
		<path class="st1" d="M593.7,324.5v-5.3l6.8-6.6c16.3-15.5,23.6-23.7,23.7-33.3c0-6.5-3.1-12.4-12.6-12.4c-5.8,0-10.6,2.9-13.5,5.4
			l-2.7-6.1c4.4-3.7,10.7-6.5,18-6.5c13.7,0,19.5,9.4,19.5,18.5c0,11.8-8.5,21.3-22,34.2l-5.1,4.7v0.2h28.6v7.2L593.7,324.5
			L593.7,324.5z"/>
		<path class="st1" d="M686.3,292c0,21.7-8,33.6-22.1,33.6c-12.4,0-20.9-11.7-21.1-32.7c0-21.4,9.2-33.1,22.2-33.1
			C678.7,259.8,686.3,271.8,686.3,292z M651.7,293c0,16.6,5.1,26,12.9,26c8.8,0,13-10.3,13-26.6c0-15.7-4-26-12.9-26
			C657.2,266.4,651.7,275.6,651.7,293z"/>
	</g>
</g>
</svg>
